<svg xmlns="http://www.w3.org/2000/svg" xmlns:xlink="http://www.w3.org/1999/xlink" xmlns:lucid="lucid" width="1380" height="680"><g transform="translate(-60 -20)" lucid:page-tab-id="0_0"><path d="M340 45c0-2.76 2.24-5 5-5h830c2.76 0 5 2.24 5 5v630c0 2.76-2.24 5-5 5H345c-2.76 0-5-2.24-5-5z" fill-opacity="0"/><path d="M384.52 40h39.53m19.76 0h39.53m19.77 0h39.52m19.76 0h39.52m19.77 0h39.52m19.75 0h39.53m19.76 0h39.52m19.76 0h39.53m19.76 0h39.53m19.77 0h39.52m19.76 0h39.52m19.77 0h39.52m19.75 0h39.53m19.76 0H1175l2.95.96 1.8 2.46.25 1.58v19.1m0 19.08v38.18m0 19.1v38.18m0 19.1v38.17m0 19.1v38.18m0 19.1v38.17m0 19.1v38.18m0 19.1V465m0 19.1v38.17m0 19.1v38.18m0 19.1v38.17m0 19.1V675l-.96 2.95-2.46 1.8-1.58.25h-19.76m-19.76 0h-39.53m-19.76 0h-39.53m-19.77 0h-39.52m-19.76 0H918.1m-19.77 0H858.8m-19.75 0h-39.53m-19.76 0h-39.52m-19.76 0h-39.53m-19.76 0h-39.53m-19.77 0h-39.52m-19.76 0H503.1m-19.77 0H443.8m-19.75 0h-39.53m-19.76 0H345l-2.95-.96-1.8-2.46L340 675v-19.1m0-19.08v-38.18m0-19.1v-38.18m0-19.1V484.1m0-19.1v-38.18m0-19.1v-38.17m0-19.1v-38.18m0-19.1V255m0-19.1v-38.17m0-19.1v-38.18m0-19.1V83.2m0-19.1V45l.96-2.95 2.46-1.8L345 40h19.76" stroke="#000" stroke-width="2" fill="none"/><path d="M820 85c0-2.76 2.24-5 5-5h150c2.76 0 5 2.24 5 5v110c0 2.76-2.24 5-5 5H825c-2.76 0-5-2.24-5-5z" stroke="#000" stroke-width="2" fill="#fff"/><use xlink:href="#a" transform="matrix(1,0,0,1,820,80) translate(18.604999999999997 51.9)"/><use xlink:href="#b" transform="matrix(1,0,0,1,820,80) translate(95.50500000000001 51.9)"/><use xlink:href="#c" transform="matrix(1,0,0,1,820,80) translate(41.07999999999999 73.5)"/><path d="M820 285c0-2.76 2.24-5 5-5h150c2.76 0 5 2.24 5 5v110c0 2.76-2.24 5-5 5H825c-2.76 0-5-2.24-5-5z" stroke="#000" stroke-width="2" fill="#fff"/><use xlink:href="#d" transform="matrix(1,0,0,1,820,280) translate(45.004999999999995 51.9)"/><use xlink:href="#c" transform="matrix(1,0,0,1,820,280) translate(41.07999999999999 73.5)"/><path d="M820 505c0-2.76 2.24-5 5-5h150c2.76 0 5 2.24 5 5v110c0 2.76-2.24 5-5 5H825c-2.76 0-5-2.24-5-5z" stroke="#000" stroke-width="2" fill="#fff"/><use xlink:href="#e" transform="matrix(1,0,0,1,820,500) translate(23.604999999999997 51.9)"/><use xlink:href="#f" transform="matrix(1,0,0,1,820,500) translate(53.555 51.9)"/><use xlink:href="#c" transform="matrix(1,0,0,1,820,500) translate(41.07999999999999 73.5)"/><path d="M400 285c0-2.76 2.24-5 5-5h150c2.76 0 5 2.24 5 5v110c0 2.76-2.24 5-5 5H405c-2.76 0-5-2.24-5-5z" stroke="#000" stroke-width="2" fill="#fff"/><use xlink:href="#g" transform="matrix(1,0,0,1,400,280) translate(52.904999999999994 51.9)"/><use xlink:href="#c" transform="matrix(1,0,0,1,400,280) translate(41.07999999999999 73.5)"/><path d="M80 285c0-2.76 2.24-5 5-5h150c2.76 0 5 2.24 5 5v110c0 2.76-2.24 5-5 5H85c-2.76 0-5-2.24-5-5z" stroke="#000" stroke-width="2" fill="#fff"/><use xlink:href="#h" transform="matrix(1,0,0,1,80,280) translate(25.630000000000003 51.9)"/><use xlink:href="#i" transform="matrix(1,0,0,1,80,280) translate(68.53 51.9)"/><use xlink:href="#j" transform="matrix(1,0,0,1,80,280) translate(17.604999999999997 73.5)"/><use xlink:href="#k" transform="matrix(1,0,0,1,80,280) translate(100.455 73.5)"/><path d="M1260 285c0-2.76 2.24-5 5-5h150c2.76 0 5 2.24 5 5v110c0 2.76-2.24 5-5 5h-150c-2.76 0-5-2.24-5-5z" stroke="#000" stroke-width="2" fill="#fff"/><use xlink:href="#l" transform="matrix(1,0,0,1,1260,280) translate(36.05499999999999 63.15)"/><use xlink:href="#m" transform="matrix(1,0,0,1,1260,280) translate(94.95500000000001 63.15)"/><path d="M242 340h138.5" stroke="#000" stroke-width="2" fill="none"/><path d="M242.03 341H241v-2h1.03z"/><path d="M395.76 340l-14.26 4.64v-9.28z" stroke="#000" stroke-width="2"/><path d="M982 340h258.5" stroke="#000" stroke-width="2" fill="none"/><path d="M982.03 341H981v-2h1.03z"/><path d="M1255.76 340l-14.26 4.64v-9.28z" stroke="#000" stroke-width="2"/><path d="M580.1 341H562v-2h18.1zm220.4 0h-.6v-2h.6z"/><path d="M562.03 341H561v-2h1.03zM815.76 340l-14.26 4.64v-9.28z"/><path d="M819 340l-18.5 6v-12zm-16.5 3.26l10.03-3.26-10.03-3.26z"/><use xlink:href="#n" transform="matrix(1,0,0,1,580.1091358024692,329.70666666666665) translate(0 13.724444444444444)"/><use xlink:href="#o" transform="matrix(1,0,0,1,580.1091358024692,329.70666666666665) translate(40.029629629629625 13.724444444444444)"/><use xlink:href="#p" transform="matrix(1,0,0,1,580.1091358024692,329.70666666666665) translate(82.8232098765432 13.724444444444444)"/><use xlink:href="#q" transform="matrix(1,0,0,1,580.1091358024692,329.70666666666665) translate(126.52222222222221 13.724444444444444)"/><path d="M561.6 141H485.1l-1.26.2-2 1.46-.82 2.5V278h-2V144.84l1.1-3.4 2.92-2.13 1.9-.3h76.7zm238.9 0H692.3v-2h108.2z"/><path d="M481 279h-2v-1.03h2zM815.76 140l-14.26 4.64v-9.28z"/><path d="M819 140l-18.5 6v-12zm-16.5 3.26l10.03-3.26-10.03-3.26z"/><g><use xlink:href="#r" transform="matrix(1,0,0,1,561.6148997419099,129.2) translate(0 14.4)"/><use xlink:href="#s" transform="matrix(1,0,0,1,561.6148997419099,129.2) translate(42 14.4)"/><use xlink:href="#t" transform="matrix(1,0,0,1,561.6148997419099,129.2) translate(79.85 14.4)"/><use xlink:href="#u" transform="matrix(1,0,0,1,561.6148997419099,129.2) translate(125.69999999999999 14.4)"/></g><path d="M900 402v78.5" stroke="#000" stroke-width="2" fill="none"/><path d="M901 402.03h-2V401h2z"/><path d="M900 495.76l-4.64-14.26h9.28z" stroke="#000" stroke-width="2"/><path d="M320 65c0-2.76 2.24-5 5-5h230c2.76 0 5 2.24 5 5v50c0 2.76-2.24 5-5 5H325c-2.76 0-5-2.24-5-5z" stroke="#000" stroke-opacity="0" stroke-width="2" fill="#fff" fill-opacity="0"/><g><use xlink:href="#v" transform="matrix(1,0,0,1,320,60) translate(73.99327160493829 34.538888888888884)"/></g><defs><path d="M63-220v92h138v28H63V0H30v-248h175v28H63" id="w"/><path d="M114-163C36-179 61-72 57 0H25l-1-190h30c1 12-1 29 2 39 6-27 23-49 58-41v29" id="x"/><path d="M100-194c62-1 85 37 85 99 1 63-27 99-86 99S16-35 15-95c0-66 28-99 85-99zM99-20c44 1 53-31 53-75 0-43-8-75-51-75s-53 32-53 75 10 74 51 75" id="y"/><path d="M117-194c89-4 53 116 60 194h-32v-121c0-31-8-49-39-48C34-167 62-67 57 0H25l-1-190h30c1 10-1 24 2 32 11-22 29-35 61-36" id="z"/><path d="M59-47c-2 24 18 29 38 22v24C64 9 27 4 27-40v-127H5v-23h24l9-43h21v43h35v23H59v120" id="A"/><path d="M100-194c63 0 86 42 84 106H49c0 40 14 67 53 68 26 1 43-12 49-29l28 8c-11 28-37 45-77 45C44 4 14-33 15-96c1-61 26-98 85-98zm52 81c6-60-76-77-97-28-3 7-6 17-6 28h103" id="B"/><path d="M85-194c31 0 48 13 60 33l-1-100h32l1 261h-30c-2-10 0-23-3-31C134-8 116 4 85 4 32 4 16-35 15-94c0-66 23-100 70-100zm9 24c-40 0-46 34-46 75 0 40 6 74 45 74 42 0 51-32 51-76 0-42-9-74-50-73" id="C"/><g id="a"><use transform="matrix(0.05,0,0,0.05,0,0)" xlink:href="#w"/><use transform="matrix(0.05,0,0,0.05,10.950000000000001,0)" xlink:href="#x"/><use transform="matrix(0.05,0,0,0.05,16.900000000000002,0)" xlink:href="#y"/><use transform="matrix(0.05,0,0,0.05,26.900000000000002,0)" xlink:href="#z"/><use transform="matrix(0.05,0,0,0.05,36.900000000000006,0)" xlink:href="#A"/><use transform="matrix(0.05,0,0,0.05,41.900000000000006,0)" xlink:href="#B"/><use transform="matrix(0.05,0,0,0.05,51.900000000000006,0)" xlink:href="#z"/><use transform="matrix(0.05,0,0,0.05,61.900000000000006,0)" xlink:href="#C"/></g><path d="M190 0L58-211 59 0H30v-248h39L202-35l-2-213h31V0h-41" id="D"/><path d="M177-190C167-65 218 103 67 71c-23-6-38-20-44-43l32-5c15 47 100 32 89-28v-30C133-14 115 1 83 1 29 1 15-40 15-95c0-56 16-97 71-98 29-1 48 16 59 35 1-10 0-23 2-32h30zM94-22c36 0 50-32 50-73 0-42-14-75-50-75-39 0-46 34-46 75s6 73 46 73" id="E"/><path d="M24-231v-30h32v30H24zM24 0v-190h32V0H24" id="F"/><path d="M141 0L90-78 38 0H4l68-98-65-92h35l48 74 47-74h35l-64 92 68 98h-35" id="G"/><g id="b"><use transform="matrix(0.05,0,0,0.05,0,0)" xlink:href="#D"/><use transform="matrix(0.05,0,0,0.05,12.950000000000001,0)" xlink:href="#E"/><use transform="matrix(0.05,0,0,0.05,22.950000000000003,0)" xlink:href="#F"/><use transform="matrix(0.05,0,0,0.05,26.900000000000002,0)" xlink:href="#z"/><use transform="matrix(0.05,0,0,0.05,36.900000000000006,0)" xlink:href="#G"/></g><path d="M212-179c-10-28-35-45-73-45-59 0-87 40-87 99 0 60 29 101 89 101 43 0 62-24 78-52l27 14C228-24 195 4 139 4 59 4 22-46 18-125c-6-104 99-153 187-111 19 9 31 26 39 46" id="H"/><path d="M141-36C126-15 110 5 73 4 37 3 15-17 15-53c-1-64 63-63 125-63 3-35-9-54-41-54-24 1-41 7-42 31l-33-3c5-37 33-52 76-52 45 0 72 20 72 64v82c-1 20 7 32 28 27v20c-31 9-61-2-59-35zM48-53c0 20 12 33 32 33 41-3 63-29 60-74-43 2-92-5-92 41" id="I"/><g id="c"><use transform="matrix(0.05,0,0,0.05,0,0)" xlink:href="#H"/><use transform="matrix(0.05,0,0,0.05,12.950000000000001,0)" xlink:href="#y"/><use transform="matrix(0.05,0,0,0.05,22.950000000000003,0)" xlink:href="#z"/><use transform="matrix(0.05,0,0,0.05,32.95,0)" xlink:href="#A"/><use transform="matrix(0.05,0,0,0.05,37.95,0)" xlink:href="#I"/><use transform="matrix(0.05,0,0,0.05,47.95,0)" xlink:href="#F"/><use transform="matrix(0.05,0,0,0.05,51.900000000000006,0)" xlink:href="#z"/><use transform="matrix(0.05,0,0,0.05,61.900000000000006,0)" xlink:href="#B"/><use transform="matrix(0.05,0,0,0.05,71.9,0)" xlink:href="#x"/></g><path d="M160-131c35 5 61 23 61 61C221 17 115-2 30 0v-248c76 3 177-17 177 60 0 33-19 50-47 57zm-97-11c50-1 110 9 110-42 0-47-63-36-110-37v79zm0 115c55-2 124 14 124-45 0-56-70-42-124-44v89" id="J"/><path d="M96-169c-40 0-48 33-48 73s9 75 48 75c24 0 41-14 43-38l32 2c-6 37-31 61-74 61-59 0-76-41-82-99-10-93 101-131 147-64 4 7 5 14 7 22l-32 3c-4-21-16-35-41-35" id="K"/><path d="M143 0L79-87 56-68V0H24v-261h32v163l83-92h37l-77 82L181 0h-38" id="L"/><g id="d"><use transform="matrix(0.05,0,0,0.05,0,0)" xlink:href="#J"/><use transform="matrix(0.05,0,0,0.05,12,0)" xlink:href="#I"/><use transform="matrix(0.05,0,0,0.05,22,0)" xlink:href="#K"/><use transform="matrix(0.05,0,0,0.05,31,0)" xlink:href="#L"/><use transform="matrix(0.05,0,0,0.05,40,0)" xlink:href="#B"/><use transform="matrix(0.05,0,0,0.05,50,0)" xlink:href="#z"/><use transform="matrix(0.05,0,0,0.05,60,0)" xlink:href="#C"/></g><path d="M30-248c118-7 216 8 213 122C240-48 200 0 122 0H30v-248zM63-27c89 8 146-16 146-99s-60-101-146-95v194" id="M"/><g id="e"><use transform="matrix(0.05,0,0,0.05,0,0)" xlink:href="#M"/><use transform="matrix(0.05,0,0,0.05,12.950000000000001,0)" xlink:href="#J"/></g><path d="M87 75C49 33 22-17 22-94c0-76 28-126 65-167h31c-38 41-64 92-64 168S80 34 118 75H87" id="N"/><path d="M30-248c87 1 191-15 191 75 0 78-77 80-158 76V0H30v-248zm33 125c57 0 124 11 124-50 0-59-68-47-124-48v98" id="O"/><path d="M135-143c-3-34-86-38-87 0 15 53 115 12 119 90S17 21 10-45l28-5c4 36 97 45 98 0-10-56-113-15-118-90-4-57 82-63 122-42 12 7 21 19 24 35" id="P"/><path d="M33-261c38 41 65 92 65 168S71 34 33 75H2C39 34 66-17 66-93S39-220 2-261h31" id="Q"/><g id="f"><use transform="matrix(0.05,0,0,0.05,0,0)" xlink:href="#N"/><use transform="matrix(0.05,0,0,0.05,5.95,0)" xlink:href="#O"/><use transform="matrix(0.05,0,0,0.05,17.95,0)" xlink:href="#y"/><use transform="matrix(0.05,0,0,0.05,27.950000000000003,0)" xlink:href="#P"/><use transform="matrix(0.05,0,0,0.05,36.95,0)" xlink:href="#A"/><use transform="matrix(0.05,0,0,0.05,41.95,0)" xlink:href="#E"/><use transform="matrix(0.05,0,0,0.05,51.95,0)" xlink:href="#x"/><use transform="matrix(0.05,0,0,0.05,57.900000000000006,0)" xlink:href="#B"/><use transform="matrix(0.05,0,0,0.05,67.9,0)" xlink:href="#P"/><use transform="matrix(0.05,0,0,0.05,76.9,0)" xlink:href="#Q"/></g><path d="M127-220V0H93v-220H8v-28h204v28h-85" id="R"/><path d="M101-234c-31-9-42 10-38 44h38v23H63V0H32v-167H5v-23h27c-7-52 17-82 69-68v24" id="S"/><g id="g"><use transform="matrix(0.05,0,0,0.05,0,0)" xlink:href="#R"/><use transform="matrix(0.05,0,0,0.05,10.3,0)" xlink:href="#x"/><use transform="matrix(0.05,0,0,0.05,16.25,0)" xlink:href="#I"/><use transform="matrix(0.05,0,0,0.05,26.25,0)" xlink:href="#B"/><use transform="matrix(0.05,0,0,0.05,36.25,0)" xlink:href="#S"/><use transform="matrix(0.05,0,0,0.05,41.25,0)" xlink:href="#F"/><use transform="matrix(0.05,0,0,0.05,45.2,0)" xlink:href="#L"/></g><path d="M232-93c-1 65-40 97-104 97C67 4 28-28 28-90v-158h33c8 89-33 224 67 224 102 0 64-133 71-224h33v155" id="T"/><g id="h"><use transform="matrix(0.05,0,0,0.05,0,0)" xlink:href="#T"/><use transform="matrix(0.05,0,0,0.05,12.950000000000001,0)" xlink:href="#P"/><use transform="matrix(0.05,0,0,0.05,21.950000000000003,0)" xlink:href="#B"/><use transform="matrix(0.05,0,0,0.05,31.950000000000003,0)" xlink:href="#x"/></g><path d="M206 0h-36l-40-164L89 0H53L-1-190h32L70-26l43-164h34l41 164 42-164h31" id="U"/><g id="i"><use transform="matrix(0.05,0,0,0.05,0,0)" xlink:href="#J"/><use transform="matrix(0.05,0,0,0.05,12,0)" xlink:href="#x"/><use transform="matrix(0.05,0,0,0.05,17.95,0)" xlink:href="#y"/><use transform="matrix(0.05,0,0,0.05,27.950000000000003,0)" xlink:href="#U"/><use transform="matrix(0.05,0,0,0.05,40.9,0)" xlink:href="#P"/><use transform="matrix(0.05,0,0,0.05,49.9,0)" xlink:href="#B"/><use transform="matrix(0.05,0,0,0.05,59.900000000000006,0)" xlink:href="#x"/></g><g id="j"><use transform="matrix(0.05,0,0,0.05,0,0)" xlink:href="#N"/><use transform="matrix(0.05,0,0,0.05,5.95,0)" xlink:href="#w"/><use transform="matrix(0.05,0,0,0.05,16.900000000000002,0)" xlink:href="#x"/><use transform="matrix(0.05,0,0,0.05,22.85,0)" xlink:href="#y"/><use transform="matrix(0.05,0,0,0.05,32.85,0)" xlink:href="#z"/><use transform="matrix(0.05,0,0,0.05,42.85,0)" xlink:href="#A"/><use transform="matrix(0.05,0,0,0.05,47.85,0)" xlink:href="#B"/><use transform="matrix(0.05,0,0,0.05,57.85,0)" xlink:href="#z"/><use transform="matrix(0.05,0,0,0.05,67.85,0)" xlink:href="#C"/></g><path d="M205 0l-28-72H64L36 0H1l101-248h38L239 0h-34zm-38-99l-47-123c-12 45-31 82-46 123h93" id="V"/><g id="k"><use transform="matrix(0.05,0,0,0.05,0,0)" xlink:href="#V"/><use transform="matrix(0.05,0,0,0.05,12,0)" xlink:href="#O"/><use transform="matrix(0.05,0,0,0.05,24,0)" xlink:href="#O"/><use transform="matrix(0.05,0,0,0.05,36,0)" xlink:href="#Q"/></g><path d="M140-251c81 0 123 46 123 126C263-46 219 4 140 4 59 4 17-45 17-125s42-126 123-126zm0 227c63 0 89-41 89-101s-29-99-89-99c-61 0-89 39-89 99S79-25 140-24" id="W"/><path d="M240 0l2-218c-23 76-54 145-80 218h-23L58-218 59 0H30v-248h44l77 211c21-75 51-140 76-211h43V0h-30" id="X"/><g id="l"><use transform="matrix(0.05,0,0,0.05,0,0)" xlink:href="#W"/><use transform="matrix(0.05,0,0,0.05,14,0)" xlink:href="#X"/><use transform="matrix(0.05,0,0,0.05,28.950000000000003,0)" xlink:href="#M"/><use transform="matrix(0.05,0,0,0.05,41.900000000000006,0)" xlink:href="#J"/></g><path d="M33 0v-248h34V0H33" id="Y"/><g id="m"><use transform="matrix(0.05,0,0,0.05,0,0)" xlink:href="#V"/><use transform="matrix(0.05,0,0,0.05,12,0)" xlink:href="#O"/><use transform="matrix(0.05,0,0,0.05,24,0)" xlink:href="#Y"/></g><path d="M106-169C34-169 62-67 57 0H25v-261h32l-1 103c12-21 28-36 61-36 89 0 53 116 60 194h-32v-121c2-32-8-49-39-48" id="Z"/><g id="n"><use transform="matrix(0.04765432098765432,0,0,0.04765432098765432,0,0)" xlink:href="#O"/><use transform="matrix(0.04765432098765432,0,0,0.04765432098765432,11.437037037037037,0)" xlink:href="#I"/><use transform="matrix(0.04765432098765432,0,0,0.04765432098765432,20.9679012345679,0)" xlink:href="#A"/><use transform="matrix(0.04765432098765432,0,0,0.04765432098765432,25.733333333333334,0)" xlink:href="#Z"/></g><g id="o"><use transform="matrix(0.04765432098765432,0,0,0.04765432098765432,0,0)" xlink:href="#N"/><use transform="matrix(0.04765432098765432,0,0,0.04765432098765432,5.6708641975308645,0)" xlink:href="#Z"/><use transform="matrix(0.04765432098765432,0,0,0.04765432098765432,15.201728395061728,0)" xlink:href="#F"/><use transform="matrix(0.04765432098765432,0,0,0.04765432098765432,18.96641975308642,0)" xlink:href="#E"/><use transform="matrix(0.04765432098765432,0,0,0.04765432098765432,28.497283950617284,0)" xlink:href="#Z"/></g><path d="M115-194c55 1 70 41 70 98S169 2 115 4C84 4 66-9 55-30l1 105H24l-1-265h31l2 30c10-21 28-34 59-34zm-8 174c40 0 45-34 45-75s-6-73-45-74c-42 0-51 32-51 76 0 43 10 73 51 73" id="aa"/><path d="M33-154v-36h34v36H33zM33 0v-36h34V0H33" id="ab"/><g id="p"><use transform="matrix(0.04765432098765432,0,0,0.04765432098765432,0,0)" xlink:href="#aa"/><use transform="matrix(0.04765432098765432,0,0,0.04765432098765432,9.530864197530864,0)" xlink:href="#x"/><use transform="matrix(0.04765432098765432,0,0,0.04765432098765432,15.201728395061728,0)" xlink:href="#F"/><use transform="matrix(0.04765432098765432,0,0,0.04765432098765432,18.96641975308642,0)" xlink:href="#y"/><use transform="matrix(0.04765432098765432,0,0,0.04765432098765432,28.497283950617284,0)" xlink:href="#Q"/><use transform="matrix(0.04765432098765432,0,0,0.04765432098765432,34.16814814814815,0)" xlink:href="#ab"/></g><path d="M0 4l72-265h28L28 4H0" id="ac"/><path d="M210-169c-67 3-38 105-44 169h-31v-121c0-29-5-50-35-48C34-165 62-65 56 0H25l-1-190h30c1 10-1 24 2 32 10-44 99-50 107 0 11-21 27-35 58-36 85-2 47 119 55 194h-31v-121c0-29-5-49-35-48" id="ad"/><path d="M68-38c1 34 0 65-14 84H32c9-13 17-26 17-46H33v-38h35" id="ae"/><g id="q"><use transform="matrix(0.04765432098765432,0,0,0.04765432098765432,0,0)" xlink:href="#ac"/><use transform="matrix(0.04765432098765432,0,0,0.04765432098765432,4.765432098765432,0)" xlink:href="#I"/><use transform="matrix(0.04765432098765432,0,0,0.04765432098765432,14.296296296296296,0)" xlink:href="#C"/><use transform="matrix(0.04765432098765432,0,0,0.04765432098765432,23.827160493827158,0)" xlink:href="#ad"/><use transform="matrix(0.04765432098765432,0,0,0.04765432098765432,38.0758024691358,0)" xlink:href="#F"/><use transform="matrix(0.04765432098765432,0,0,0.04765432098765432,41.84049382716049,0)" xlink:href="#z"/><use transform="matrix(0.04765432098765432,0,0,0.04765432098765432,51.371358024691354,0)" xlink:href="#ac"/><use transform="matrix(0.04765432098765432,0,0,0.04765432098765432,56.13679012345679,0)" xlink:href="#ae"/><use transform="matrix(0.04765432098765432,0,0,0.04765432098765432,60.90222222222222,0)" xlink:href="#ac"/><use transform="matrix(0.04765432098765432,0,0,0.04765432098765432,65.66765432098765,0)" xlink:href="#I"/><use transform="matrix(0.04765432098765432,0,0,0.04765432098765432,75.19851851851851,0)" xlink:href="#aa"/><use transform="matrix(0.04765432098765432,0,0,0.04765432098765432,84.72938271604937,0)" xlink:href="#F"/><use transform="matrix(0.04765432098765432,0,0,0.04765432098765432,88.49407407407406,0)" xlink:href="#ac"/></g><g id="r"><use transform="matrix(0.05,0,0,0.05,0,0)" xlink:href="#O"/><use transform="matrix(0.05,0,0,0.05,12,0)" xlink:href="#I"/><use transform="matrix(0.05,0,0,0.05,22,0)" xlink:href="#A"/><use transform="matrix(0.05,0,0,0.05,27,0)" xlink:href="#Z"/></g><path d="M24 0v-261h32V0H24" id="af"/><g id="s"><use transform="matrix(0.05,0,0,0.05,0,0)" xlink:href="#N"/><use transform="matrix(0.05,0,0,0.05,5.95,0)" xlink:href="#af"/><use transform="matrix(0.05,0,0,0.05,9.9,0)" xlink:href="#y"/><use transform="matrix(0.05,0,0,0.05,19.9,0)" xlink:href="#U"/></g><g id="t"><use transform="matrix(0.05,0,0,0.05,0,0)" xlink:href="#aa"/><use transform="matrix(0.05,0,0,0.05,10,0)" xlink:href="#x"/><use transform="matrix(0.05,0,0,0.05,15.949999999999998,0)" xlink:href="#F"/><use transform="matrix(0.05,0,0,0.05,19.9,0)" xlink:href="#y"/><use transform="matrix(0.05,0,0,0.05,29.899999999999995,0)" xlink:href="#Q"/><use transform="matrix(0.05,0,0,0.05,35.85,0)" xlink:href="#ab"/></g><use transform="matrix(0.05,0,0,0.05,0,0)" xlink:href="#ac" id="u"/><g id="v"><use transform="matrix(0.08086419753086417,0,0,0.08086419753086417,0,0)" xlink:href="#M"/><use transform="matrix(0.08086419753086417,0,0,0.08086419753086417,20.94382716049382,0)" xlink:href="#y"/><use transform="matrix(0.08086419753086417,0,0,0.08086419753086417,37.11666666666666,0)" xlink:href="#K"/><use transform="matrix(0.08086419753086417,0,0,0.08086419753086417,51.67222222222222,0)" xlink:href="#L"/><use transform="matrix(0.08086419753086417,0,0,0.08086419753086417,66.22777777777776,0)" xlink:href="#B"/><use transform="matrix(0.08086419753086417,0,0,0.08086419753086417,82.4006172839506,0)" xlink:href="#x"/></g></defs></g></svg>